<svg xmlns="http://www.w3.org/2000/svg" width="20" height="22" viewBox="0 0 20 22">
  <g id="notes" transform="translate(-2 -1)">
    <path id="Path_9" data-name="Path 9" d="M6,6A1,1,0,0,1,7,5H17a1,1,0,0,1,0,2H7A1,1,0,0,1,6,6Z" fill="#767676"/>
    <path id="Path_10" data-name="Path 10" d="M6,10A1,1,0,0,1,7,9H17a1,1,0,0,1,0,2H7A1,1,0,0,1,6,10Z" fill="#767676"/>
    <path id="Path_11" data-name="Path 11" d="M7,13a1,1,0,0,0,0,2H17a1,1,0,0,0,0-2Z" fill="#767676"/>
    <path id="Path_12" data-name="Path 12" d="M6,18a1,1,0,0,1,1-1h4a1,1,0,0,1,0,2H7A1,1,0,0,1,6,18Z" fill="#767676"/>
    <path id="Path_13" data-name="Path 13" d="M2,4A3,3,0,0,1,5,1H19a3,3,0,0,1,3,3V20a3,3,0,0,1-3,3H5a3,3,0,0,1-3-3ZM5,3H19a1,1,0,0,1,1,1V20a1,1,0,0,1-1,1H5a1,1,0,0,1-1-1V4A1,1,0,0,1,5,3Z" fill="#767676" fill-rule="evenodd"/>
  </g>
</svg>
