<svg xmlns="http://www.w3.org/2000/svg" width="20.642" height="19.793" viewBox="0 0 20.642 19.793">
  <path id="database" d="M10.334,19.793a37.976,37.976,0,0,1-5.181-.329,15.809,15.809,0,0,1-3.759-.9Q.015,18,.014,17.319V14.844a.778.778,0,0,1,.121-.367,12.723,12.723,0,0,0,4.081,1.16,39.469,39.469,0,0,0,6.117.445,39.47,39.47,0,0,0,6.117-.445,12.722,12.722,0,0,0,4.081-1.16.778.778,0,0,1,.121.367v2.474q0,.677-1.381,1.247a15.878,15.878,0,0,1-3.759.9,37.8,37.8,0,0,1-5.181.329Zm0-4.948a37.976,37.976,0,0,1-5.181-.329,15.809,15.809,0,0,1-3.759-.9Q.015,13.047.014,12.37V9.9a.778.778,0,0,1,.121-.367,12.723,12.723,0,0,0,4.081,1.16,39.469,39.469,0,0,0,6.117.445,39.469,39.469,0,0,0,6.117-.445,12.723,12.723,0,0,0,4.081-1.16.778.778,0,0,1,.121.367V12.37q0,.677-1.381,1.247a15.874,15.874,0,0,1-3.757.9,37.764,37.764,0,0,1-5.181.329Zm0-4.948a37.976,37.976,0,0,1-5.181-.329,15.777,15.777,0,0,1-3.759-.9Q.015,8.1.014,7.422V4.948a.778.778,0,0,1,.121-.367,12.723,12.723,0,0,0,4.081,1.16,39.469,39.469,0,0,0,6.117.445,39.469,39.469,0,0,0,6.117-.445,12.723,12.723,0,0,0,4.081-1.16.778.778,0,0,1,.121.367V7.422q0,.677-1.381,1.247a15.874,15.874,0,0,1-3.757.9,37.765,37.765,0,0,1-5.181.329Zm0-4.948A37.976,37.976,0,0,1,5.153,4.62a15.777,15.777,0,0,1-3.759-.9Q.015,3.149.014,2.474T1.395,1.228a15.785,15.785,0,0,1,3.759-.9A38.14,38.14,0,0,1,10.335,0a37.789,37.789,0,0,1,5.181.329,15.893,15.893,0,0,1,3.759.9q1.382.57,1.381,1.247T19.275,3.721a15.864,15.864,0,0,1-3.759.9,37.813,37.813,0,0,1-5.181.329Z" transform="translate(-0.014)" fill="#767676"/>
</svg>
