<svg xmlns="http://www.w3.org/2000/svg" width="24" height="18" viewBox="0 0 24 18">
  <g id="people-fill" transform="translate(0 -3)">
    <path id="Path_8" data-name="Path 8" d="M10.5,21A1.469,1.469,0,0,1,9,19.5c0-1.5,1.5-6,7.5-6S24,18,24,19.5A1.469,1.469,0,0,1,22.5,21Zm6-9A4.5,4.5,0,1,0,12,7.5,4.5,4.5,0,0,0,16.5,12ZM7.824,21A3.357,3.357,0,0,1,7.5,19.5a7.16,7.16,0,0,1,2.9-5.58,9.488,9.488,0,0,0-2.9-.42c-6,0-7.5,4.5-7.5,6A1.469,1.469,0,0,0,1.5,21H7.824ZM6.75,12A3.75,3.75,0,1,0,3,8.25,3.75,3.75,0,0,0,6.75,12Z" fill="#767676" fill-rule="evenodd"/>
  </g>
</svg>
